<?xml version="1.0"?>
<svg width="256" height="256" xmlns="http://www.w3.org/2000/svg" xmlns:svg="http://www.w3.org/2000/svg">
 <!-- Created with SVG-edit - https://github.com/SVG-Edit/svgedit-->
 <g class="layer">
  <title>Layer 1</title>
  <rect fill="#000000" height="256.47" id="svg_4" stroke="#000000" width="255.88" x="-0.47" y="0"/>
  <ellipse cx="36" cy="126.47" fill="#686868" id="svg_5" rx="21.76" ry="21.18" stroke="#ffffff" stroke-width="2" transform="matrix(1 0 0 1 0 0)"/>
  <ellipse cx="130.82" cy="127.35" fill="#686868" id="svg_6" rx="21.76" ry="21.18" stroke="#ffffff" stroke-width="2"/>
  <ellipse cx="227.88" cy="126.76" fill="#686868" id="svg_7" rx="21.76" ry="21.18" stroke="#ffffff" stroke-width="2"/>
  <ellipse cx="132" cy="208.53" fill="#686868" id="svg_8" rx="21.76" ry="21.18" stroke="#ffffff" stroke-width="2"/>
  <ellipse cx="131.41" cy="39.71" fill="#686868" id="svg_9" rx="21.76" ry="21.18" stroke="#ffffff" stroke-width="2" transform="matrix(1 0 0 1 0 0)"/>
  <line fill="none" id="svg_12" stroke="#ffffff" stroke-width="2" transform="matrix(1 0 0 1 0 0)" x1="114.24" x2="50.12" y1="50.59" y2="111.18"/>
  <line fill="none" id="svg_13" stroke="#ffffff" stroke-width="2" x1="58.94" x2="108.35" y1="128.82" y2="129.41"/>
  <line fill="none" id="svg_14" stroke="#ffffff" stroke-width="2" x1="51.88" x2="113.06" y1="141.18" y2="197.65"/>
  <line fill="none" id="svg_15" stroke="#ffffff" stroke-width="2" x1="151.29" x2="210.12" y1="49.41" y2="112.94"/>
  <line fill="none" id="svg_16" stroke="#ffffff" stroke-width="2" x1="153.06" x2="205.41" y1="130.59" y2="130.59"/>
  <line fill="none" id="svg_17" stroke="#ffffff" stroke-width="2" transform="matrix(1 0 0 1 0 0)" x1="153.06" x2="212.47" y1="202.35" y2="142.94"/>
 </g>
</svg>